{"glyphs":{"0":{"ha":630,"x_min":0,"x_max":576,"o":"m 290 5 q 147 59 207 5 q 52 201 87 113 q 0 490 0 330 q 10 628 0 547 q 57 797 20 709 q 157 938 95 884 q 307 992 220 992 q 435 938 381 992 q 524 797 490 884 q 576 492 576 661 q 568 366 576 443 q 526 201 560 289 q 434 59 492 113 q 290 5 375 5 m 291 172 q 352 221 328 172 q 388 348 376 271 q 401 512 400 425 q 390 675 401 598 q 355 802 378 752 q 298 851 332 851 q 233 802 260 851 q 193 675 207 752 q 179 503 179 594 q 191 346 179 421 q 228 221 202 271 q 291 172 253 172 z "},"1":{"ha":342,"x_min":0,"x_max":288,"o":"m 169 4 q 121 15 149 4 q 91 87 91 27 l 102 812 q 100 813 102 813 q 79 804 94 813 q 26 786 44 786 q 0 816 0 786 q 12 860 0 831 q 53 925 23 888 q 115 983 83 962 q 165 994 134 994 q 192 992 170 994 q 247 969 214 991 q 283 901 280 947 q 288 663 288 794 q 286 490 288 614 q 279 217 285 367 q 265 50 273 67 q 204 9 245 21 q 169 4 186 4 z "},"2":{"ha":621,"x_min":0,"x_max":566,"o":"m 188 -7 q 56 2 94 -7 q 15 46 31 11 q 0 123 0 81 q 20 195 0 165 q 138 316 65 254 q 290 475 220 387 q 371 685 361 564 l 372 699 q 344 820 372 772 q 272 867 317 867 q 214 829 235 867 q 188 723 188 783 q 201 650 188 684 q 205 629 205 639 q 182 587 205 604 q 130 570 159 570 q 91 575 119 570 q 34 635 62 581 q 11 748 11 687 q 11 782 11 750 q 41 872 12 814 q 131 967 70 929 q 290 1005 193 1005 q 437 956 375 1005 q 533 831 499 906 q 566 680 566 756 q 481 451 566 563 q 319 286 426 377 q 245 215 273 245 q 219 165 219 187 q 285 145 219 145 q 372 148 325 145 q 442 151 412 151 q 488 149 469 151 q 538 70 538 137 q 502 3 538 9 q 188 -7 361 -7 z "},"3":{"ha":572,"x_min":0,"x_max":0,"o":""},"4":{"ha":602,"x_min":0,"x_max":547,"o":"m 437 0 q 395 7 422 0 q 361 55 368 15 q 349 278 359 82 q 191 271 300 271 q 57 278 98 271 q 20 313 35 284 q 0 397 0 351 q 7 439 0 420 q 89 587 24 477 q 226 810 154 698 q 338 966 298 923 q 436 998 371 998 q 546 932 537 998 q 547 840 547 903 q 545 632 547 776 q 537 300 543 488 q 528 68 532 113 q 482 9 520 26 q 437 0 460 0 m 262 431 q 347 440 312 431 q 355 646 355 543 l 357 736 l 273 584 q 208 445 208 464 q 262 431 208 431 z "},"5":{"ha":591,"x_min":0,"x_max":0,"o":""},"6":{"ha":691,"x_min":0,"x_max":637,"o":"m 322 0 l 314 0 q 92 118 168 13 q 0 444 0 246 q 36 684 0 556 q 163 906 73 812 q 373 998 249 998 q 514 913 469 996 q 533 854 532 882 q 522 819 533 835 q 488 796 508 796 q 471 806 477 796 q 396 879 445 873 q 324 842 359 879 q 264 756 290 806 q 227 667 239 707 q 328 724 257 701 q 388 733 357 733 q 481 713 433 733 q 616 544 582 660 q 637 408 637 477 q 618 264 637 355 q 520 85 600 173 q 322 0 444 0 m 327 117 q 422 191 385 117 q 470 417 470 288 q 361 626 470 612 l 358 626 q 251 585 302 626 q 192 479 201 543 q 190 408 190 442 q 225 206 190 290 q 327 117 260 122 z "},"7":{"ha":633,"x_min":0,"x_max":0,"o":""},"8":{"ha":635,"x_min":0,"x_max":581,"o":"m 292 -6 q 117 33 183 -6 q 24 132 52 71 q 0 240 0 183 l 1 262 q 152 515 13 396 l 149 519 q 58 640 98 576 q 20 766 20 699 q 56 888 20 827 q 141 971 85 939 q 279 1004 197 1004 q 433 970 373 1004 q 522 885 493 937 q 551 772 551 833 q 516 664 549 712 q 434 566 484 616 q 406 535 420 551 q 523 416 465 486 q 581 263 581 345 q 553 138 581 199 q 459 36 525 77 q 292 -6 394 -6 m 287 656 q 359 812 359 732 q 346 868 359 838 q 293 897 332 897 q 240 867 255 897 q 227 808 227 842 q 228 778 227 802 q 245 715 229 754 q 287 656 262 676 m 290 119 q 363 153 342 119 q 382 219 382 181 q 380 254 382 227 q 354 327 378 281 q 292 401 330 373 q 197 220 197 311 q 216 154 197 189 q 290 119 235 119 z "},"9":{"ha":691,"x_min":0,"x_max":0,"o":""},"\u0000":{"ha":54,"x_min":0,"x_max":0,"o":""}," ":{"ha":407,"x_min":0,"x_max":0,"o":""},"!":{"ha":290,"x_min":0,"x_max":236,"o":"m 113 260 q 39 316 52 260 q 26 448 36 338 q 0 919 0 734 l 1 935 q 63 1000 6 983 q 119 1007 91 1007 q 236 930 232 1007 q 224 721 234 853 q 184 316 198 389 q 113 260 170 260 m 118 -7 q 52 21 75 -7 q 30 66 30 49 l 29 86 q 52 148 29 120 q 119 175 74 175 q 186 148 165 175 q 208 86 208 120 q 184 22 208 50 q 118 -7 161 -7 z "},"\"":{"ha":361,"x_min":0,"x_max":0,"o":""},"#":{"ha":737,"x_min":0,"x_max":0,"o":""},"$":{"ha":549,"x_min":0,"x_max":0,"o":""},"%":{"ha":938,"x_min":0,"x_max":0,"o":""},"&":{"ha":793,"x_min":0,"x_max":739,"o":"m 304 2 q 152 37 221 2 q 41 134 83 72 q 0 278 0 196 q 78 479 0 391 q 155 557 115 521 l 135 585 q 99 638 116 610 q 71 702 82 665 q 60 790 60 739 q 89 891 60 844 q 170 969 119 939 q 290 999 222 999 q 473 938 403 999 q 543 781 543 876 q 524 680 543 725 q 477 597 505 634 q 422 530 450 561 q 391 493 405 511 q 534 325 469 391 q 594 498 580 395 q 637 529 600 529 q 689 511 663 529 q 718 450 715 493 q 694 324 718 385 q 635 223 669 263 q 722 135 678 177 q 739 93 739 115 q 700 25 739 51 q 665 14 684 14 q 639 20 652 14 q 535 100 590 44 q 433 26 488 50 q 304 2 379 2 m 280 650 q 338 718 315 677 q 370 821 370 772 q 304 893 370 893 q 250 866 267 893 q 232 798 232 838 q 244 721 232 761 q 280 650 257 682 m 342 131 q 437 197 370 131 q 319 355 373 273 q 288 399 302 380 q 214 245 214 329 q 235 173 214 204 q 315 131 262 131 l 342 131 z "},"'":{"ha":192,"x_min":0,"x_max":138,"o":"m 52 753 q 17 770 26 753 q 12 786 12 777 q 0 956 1 906 q 33 1004 3 991 q 71 1012 52 1012 q 130 983 113 1012 q 138 941 138 970 q 130 866 138 911 q 109 785 122 817 q 81 760 100 768 q 52 753 66 753 z "},"(":{"ha":356,"x_min":0,"x_max":0,"o":""},")":{"ha":355,"x_min":0,"x_max":0,"o":""},"*":{"ha":373,"x_min":0,"x_max":0,"o":""},"+":{"ha":509,"x_min":0,"x_max":0,"o":""},",":{"ha":227,"x_min":0,"x_max":172,"o":"m 54 -85 q 37 -82 45 -85 q 6 -50 6 -73 q 13 -31 6 -41 q 28 10 28 -6 q 16 44 28 26 q 0 90 0 68 q 3 114 0 101 q 50 172 20 168 q 84 175 79 175 q 157 136 129 175 q 172 71 172 103 q 158 8 172 39 q 74 -81 130 -56 q 54 -85 64 -85 z "},"-":{"ha":385,"x_min":0,"x_max":0,"o":""},".":{"ha":232,"x_min":0,"x_max":178,"o":"m 89 -7 q 23 21 45 -7 q 1 66 1 49 l 0 86 q 22 148 0 120 q 90 175 45 175 q 156 148 135 175 q 178 88 178 121 q 155 21 178 50 q 89 -7 132 -7 z "},"/":{"ha":497,"x_min":0,"x_max":0,"o":""},":":{"ha":232,"x_min":0,"x_max":0,"o":""},";":{"ha":232,"x_min":0,"x_max":0,"o":""},"<":{"ha":513,"x_min":0,"x_max":0,"o":""},"=":{"ha":480,"x_min":0,"x_max":0,"o":""},">":{"ha":513,"x_min":0,"x_max":0,"o":""},"?":{"ha":631,"x_min":0,"x_max":577,"o":"m 288 212 q 233 235 257 212 q 213 285 213 256 l 214 298 q 254 431 229 374 q 304 537 278 489 q 349 633 330 585 q 374 756 374 697 q 369 805 374 778 q 345 855 363 833 q 297 878 328 878 q 238 845 261 878 q 210 751 210 806 q 231 663 210 708 q 235 644 235 654 q 206 597 235 618 q 115 568 168 568 l 85 568 q 22 621 58 568 q 0 715 0 663 q 3 764 0 726 q 42 864 6 802 q 142 968 78 926 q 294 1009 205 1009 q 498 936 420 1009 q 577 739 576 863 q 545 611 575 667 q 472 498 515 555 q 399 390 435 450 q 334 250 362 330 q 288 212 320 212 m 269 -7 q 202 21 224 -7 q 180 84 180 49 q 202 147 180 119 q 269 175 224 175 q 336 148 315 175 q 357 86 357 120 q 334 21 357 50 q 269 -7 311 -7 z "},"@":{"ha":1005,"x_min":0,"x_max":951,"o":"m 482 -72 q 270 -28 361 -72 q 118 90 178 16 q 28 258 58 165 q 0 443 0 348 q 1 498 0 446 q 33 644 1 550 q 128 812 65 738 q 285 932 191 887 q 504 977 378 977 q 694 943 614 977 q 911 724 848 878 q 951 515 951 627 q 940 401 951 465 q 832 156 911 231 q 713 105 778 105 q 609 138 650 105 q 548 212 568 171 q 528 275 529 254 q 513 247 528 271 q 413 199 481 199 q 258 312 306 199 q 232 452 232 374 q 276 640 232 559 q 434 747 334 747 q 490 734 468 747 q 525 705 513 722 q 543 673 538 688 q 549 716 544 694 q 592 749 558 741 q 621 753 606 753 q 694 702 690 753 q 691 549 694 635 q 687 361 687 423 q 689 286 687 323 q 703 249 691 249 q 739 282 719 249 q 774 370 760 315 q 798 537 798 452 q 790 633 798 579 q 750 741 781 686 q 662 829 719 795 q 515 863 605 863 q 355 829 424 863 q 171 611 222 763 q 146 454 146 537 q 230 195 146 302 q 491 74 323 74 q 550 37 535 73 q 558 3 558 20 q 482 -72 558 -68 m 438 265 q 486 295 464 265 q 523 370 507 324 q 547 524 547 446 q 544 578 547 545 q 522 641 540 612 q 469 671 503 671 q 389 566 415 671 q 372 434 372 503 q 378 362 372 401 q 398 295 383 324 q 438 265 413 265 z "},"A":{"ha":728,"x_min":0,"x_max":673,"o":"m 573 -13 q 484 38 496 -13 q 439 217 460 196 q 378 225 425 225 q 249 215 317 225 q 180 195 192 207 q 158 134 178 192 q 119 25 134 58 q 90 1 106 2 q 72 0 74 0 q 20 17 44 0 q 0 63 0 33 l 1 75 q 71 343 18 169 q 188 693 124 518 q 304 962 252 867 q 355 1006 326 998 q 399 1015 383 1015 q 444 1006 422 1015 q 498 950 481 991 q 618 373 537 832 q 673 50 673 63 q 633 -2 673 14 q 573 -13 604 -13 m 317 323 q 382 327 353 323 q 418 338 411 331 q 422 359 422 342 q 401 533 422 406 q 356 717 372 710 q 282 541 342 713 q 225 341 225 379 q 306 323 225 323 l 317 323 z "},"B":{"ha":574,"x_min":0,"x_max":520,"o":"m 218 -5 q 104 0 147 -5 q 39 24 60 5 q 12 83 17 43 q 0 492 0 204 q 7 945 0 693 q 49 991 10 977 q 190 1006 94 1006 q 252 1004 221 1006 q 449 927 386 996 q 519 766 512 859 q 520 733 520 749 q 490 587 520 659 q 400 487 460 515 q 480 397 451 455 q 513 258 513 332 q 485 136 513 196 q 391 35 456 76 q 218 -5 326 -5 m 201 104 q 292 137 254 104 q 345 220 329 171 q 357 286 357 253 q 352 334 357 302 q 310 399 347 366 q 202 433 273 433 q 200 339 200 399 q 201 157 200 237 l 201 104 m 204 533 q 284 560 250 533 q 339 629 318 587 q 365 738 365 681 q 351 810 365 773 q 300 874 337 848 q 201 901 263 901 q 203 793 201 863 l 205 578 q 204 533 205 551 z "},"C":{"ha":631,"x_min":0,"x_max":576,"o":"m 319 -5 q 157 50 224 -5 q 53 195 91 105 q 7 360 14 286 q 0 477 0 435 q 70 806 0 661 q 182 951 113 896 q 345 1006 251 1006 q 464 975 415 1006 q 541 892 513 944 q 570 804 568 840 q 572 758 572 768 q 555 646 572 703 q 514 601 539 606 q 478 595 490 595 q 432 608 454 595 q 411 645 411 621 q 413 662 411 653 q 424 743 424 696 q 397 869 424 823 q 358 894 382 894 q 300 840 325 894 q 262 702 276 786 q 248 564 249 618 q 247 496 247 510 q 293 210 247 308 q 360 156 318 156 q 414 176 393 156 q 446 225 434 197 q 466 281 458 254 q 477 314 472 300 q 515 342 491 342 q 559 317 542 342 q 576 262 576 292 q 556 172 576 229 q 437 23 521 72 q 319 -5 390 -5 z "},"D":{"ha":598,"x_min":0,"x_max":544,"o":"m 192 4 q 12 73 22 4 q 5 297 8 122 q 0 659 0 497 q 5 935 0 855 q 41 976 8 962 q 224 997 93 997 q 396 943 328 997 q 500 800 464 888 q 544 558 544 694 q 461 201 544 361 q 348 58 416 113 q 192 4 279 4 m 212 178 q 282 227 251 178 q 331 354 313 277 q 353 550 353 449 q 339 689 353 618 q 290 809 326 759 q 196 859 255 859 q 207 526 202 747 q 212 178 212 304 z "},"E":{"ha":500,"x_min":0,"x_max":446,"o":"m 213 -7 q 108 -4 169 -7 q 33 26 47 0 q 12 281 21 77 q 0 755 0 536 q 9 962 0 911 q 232 1009 26 1009 q 385 1001 326 1009 q 443 935 443 991 q 431 890 443 912 q 388 860 416 860 l 385 860 q 317 863 358 863 q 208 848 231 863 q 196 799 199 840 q 192 673 192 757 q 196 558 192 595 q 227 543 199 545 q 273 541 248 541 l 315 542 q 347 541 332 542 q 391 488 391 534 q 380 449 391 471 q 341 422 369 427 l 292 422 q 236 421 262 422 q 201 414 210 420 q 195 344 195 407 q 196 275 195 316 q 208 133 200 164 q 258 119 215 119 q 329 122 289 119 q 406 125 369 125 q 446 70 446 123 q 438 31 446 54 q 406 3 430 8 q 291 -5 376 -1 q 213 -7 252 -7 z "},"F":{"ha":511,"x_min":0,"x_max":456,"o":"m 98 -1 q 43 9 77 -1 q 3 76 9 19 q 0 372 0 159 q 26 955 0 814 q 252 1002 42 1002 q 416 994 358 1002 q 452 957 442 989 q 456 925 456 941 q 415 857 456 863 q 363 855 396 856 q 186 833 217 855 q 169 783 174 822 q 163 677 163 738 q 172 567 163 581 q 213 558 181 558 q 294 563 247 558 q 349 566 328 566 q 390 533 378 564 q 397 496 397 515 q 392 461 397 484 q 352 432 386 439 q 311 431 334 431 l 279 431 l 239 433 q 214 432 231 433 q 191 423 197 431 q 190 403 190 418 q 195 323 190 377 q 206 134 206 211 q 201 53 206 90 q 148 7 194 23 q 98 -1 123 -1 z "},"G":{"ha":692,"x_min":0,"x_max":638,"o":"m 541 -7 q 495 -1 518 -7 q 444 41 450 10 q 439 102 442 59 q 414 64 432 87 q 367 21 396 40 q 296 1 337 1 q 147 56 209 1 q 49 201 85 111 q 6 362 13 290 q 0 471 0 434 q 77 808 0 661 q 200 953 123 898 q 384 1008 277 1008 q 508 979 460 1008 q 581 904 556 949 q 611 820 606 859 q 616 756 616 781 q 593 639 616 686 q 540 588 566 591 q 506 585 515 585 q 452 599 475 585 q 432 629 432 612 q 435 644 432 636 q 464 725 464 694 q 465 760 465 756 q 444 855 465 814 q 379 899 420 899 q 287 845 326 899 q 226 707 248 791 q 200 562 203 623 q 197 475 197 501 q 250 214 197 304 q 335 160 282 160 q 424 266 399 160 q 439 411 439 328 l 438 422 q 530 475 444 475 q 576 468 553 475 q 629 418 623 455 q 638 105 638 321 q 636 47 638 61 q 596 1 630 9 q 541 -7 563 -7 z "},"H":{"ha":634,"x_min":0,"x_max":580,"o":"m 93 -7 q 44 1 75 -7 q 7 56 14 9 q 0 477 0 139 q 6 948 0 783 q 104 1008 14 1008 q 170 996 132 1008 q 210 943 208 983 q 207 755 207 853 l 208 543 q 279 526 210 526 q 345 534 317 526 q 372 553 370 540 q 376 693 375 591 q 384 926 378 853 q 439 992 391 977 q 481 999 460 999 q 542 985 507 999 q 580 924 576 971 q 577 659 580 842 q 572 302 575 477 q 569 69 570 128 q 526 9 566 25 q 477 -1 502 -1 q 433 6 461 -1 q 395 45 404 12 q 385 230 385 115 q 380 347 383 296 q 368 407 377 397 q 298 417 352 417 q 203 394 211 417 q 195 256 195 350 l 195 240 q 188 52 195 137 q 140 1 181 17 q 93 -7 117 -7 z "},"I":{"ha":407,"x_min":1,"x_max":352,"o":"m 119 -5 q 32 0 61 -5 q 10 20 16 4 q 4 50 4 37 q 28 92 5 83 q 84 99 55 99 q 81 528 81 250 q 90 895 81 749 q 78 896 85 896 q 26 894 52 896 q 1 936 1 896 q 7 970 1 951 q 36 1000 16 996 q 213 1006 93 1006 q 321 1002 302 1006 q 347 951 347 993 q 326 906 344 910 q 284 901 317 904 q 287 773 287 860 q 284 554 287 686 q 271 104 277 219 q 329 98 294 104 q 352 54 352 91 q 320 2 352 7 q 119 -5 245 -5 z "},"J":{"ha":428,"x_min":0,"x_max":374,"o":"m 64 1 q 11 22 29 1 q 0 51 0 35 q 18 99 0 72 q 90 343 78 184 q 102 698 102 503 l 102 778 l 102 882 q 88 882 97 882 q 51 886 62 882 q 26 943 26 899 q 61 997 26 991 q 197 1001 99 1001 q 338 997 267 1001 q 374 945 374 992 q 349 897 374 905 q 311 893 337 893 q 309 726 309 810 q 297 399 309 553 q 240 138 286 244 q 92 3 195 31 q 64 1 77 1 z "},"K":{"ha":642,"x_min":0,"x_max":588,"o":"m 484 -13 q 432 -5 467 -13 q 385 40 397 2 q 352 150 381 60 q 281 334 322 239 q 201 463 240 428 l 201 439 q 203 311 201 387 q 205 146 205 233 q 201 50 205 89 q 154 3 195 16 q 119 -3 137 -3 q 63 11 96 -3 q 22 81 30 25 q 12 298 18 126 q 0 906 0 686 l 0 940 q 53 998 5 984 q 98 1004 75 1004 q 206 934 197 1004 q 207 903 207 924 q 206 833 207 882 q 203 714 205 785 q 200 604 201 643 q 344 834 262 715 q 473 1000 426 953 q 512 1015 490 1015 q 577 984 552 1015 q 588 957 588 971 q 582 935 588 947 q 458 748 553 887 q 358 596 369 616 q 432 448 387 551 q 519 237 477 345 q 577 51 577 81 q 541 -1 577 14 q 484 -13 514 -13 z "},"L":{"ha":535,"x_min":0,"x_max":481,"o":"m 229 -4 q 111 1 178 -4 q 24 33 43 5 q 0 569 0 100 q 6 941 0 816 q 101 1006 15 1006 q 169 992 130 1006 q 212 933 207 978 l 212 914 q 207 684 212 855 l 201 450 q 199 224 199 327 q 203 143 199 157 q 264 132 208 132 q 372 138 303 132 q 437 142 413 141 q 474 111 463 140 q 481 74 481 93 q 475 39 481 61 q 439 9 469 16 q 309 -2 402 3 q 229 -4 269 -4 z "},"M":{"ha":846,"x_min":0,"x_max":792,"o":"m 671 1 q 595 62 602 1 q 594 140 594 82 q 604 606 594 517 q 544 441 589 572 q 465 226 484 264 q 387 184 441 184 q 312 232 329 184 l 277 345 q 197 609 217 538 q 196 543 196 582 q 197 416 196 490 q 199 206 199 308 q 191 59 199 104 q 151 12 180 20 q 104 3 122 3 q 62 10 83 3 q 15 67 22 25 q 1 288 1 179 q 0 418 0 396 q 5 738 0 588 q 17 942 10 907 q 113 1001 35 1001 q 212 958 176 1001 q 343 656 264 888 q 391 498 376 561 q 454 658 414 563 q 532 838 494 753 q 591 956 570 923 q 648 996 618 992 q 690 1000 678 1000 q 751 985 723 1000 q 792 926 789 966 q 784 488 792 840 q 766 59 774 106 q 726 13 758 25 q 671 1 694 1 z "},"N":{"ha":660,"x_min":0,"x_max":606,"o":"m 100 -8 q 54 1 83 -8 q 20 56 26 10 q 3 486 10 207 q 0 727 0 619 q 3 934 0 846 q 89 1008 12 1008 q 186 964 150 1008 q 258 818 210 930 q 423 404 334 642 q 410 683 416 517 q 404 883 404 805 q 405 933 404 911 q 458 1002 411 985 q 504 1010 481 1010 q 602 932 597 1010 q 604 707 603 885 q 606 57 606 174 q 570 11 604 25 q 520 1 547 1 q 483 4 509 1 q 436 38 458 8 q 353 204 404 91 q 256 429 302 317 q 193 591 210 541 q 195 325 195 492 q 191 59 195 151 q 145 1 185 17 q 100 -8 123 -8 z "},"O":{"ha":731,"x_min":0,"x_max":677,"o":"m 338 -5 q 168 50 238 -5 q 58 195 98 105 q 0 486 0 324 q 12 631 0 547 q 68 806 24 715 q 184 951 113 896 q 354 1006 256 1006 q 522 951 454 1006 q 627 806 589 896 q 677 538 677 686 q 662 376 677 466 q 603 195 646 286 q 493 50 559 105 q 338 -5 426 -5 m 332 146 q 411 201 378 146 q 464 340 444 255 q 487 555 487 441 q 474 706 487 630 q 429 837 462 783 q 342 891 396 891 q 262 837 296 891 q 210 699 229 783 q 186 483 186 600 q 199 331 186 408 q 245 201 212 255 q 332 146 279 146 z "},"P":{"ha":545,"x_min":0,"x_max":491,"o":"m 101 -2 q 48 7 81 -2 q 9 63 16 16 q 0 686 0 203 q 1 926 0 866 q 28 976 2 960 q 98 998 54 993 q 199 1004 142 1004 q 350 967 288 1004 q 445 871 411 930 q 491 689 491 790 q 478 585 491 643 q 428 467 466 526 q 331 370 390 407 q 195 332 273 334 l 197 134 q 195 54 197 81 q 148 5 191 20 q 101 -2 125 -2 m 189 442 q 260 477 232 442 q 303 565 289 511 q 318 679 318 618 q 304 792 318 739 q 261 881 290 846 q 189 915 232 915 q 187 835 187 889 q 189 616 187 720 q 189 442 189 532 z "},"Q":{"ha":722,"x_min":0,"x_max":667,"o":"m 522 -109 q 396 -67 477 -109 q 273 -21 338 -36 q 237 -17 256 -17 q 136 -45 189 -17 q 109 -53 122 -53 q 82 -44 98 -53 q 60 -11 66 -35 q 59 1 59 -5 q 75 38 59 20 q 135 81 104 68 q 43 233 77 143 q 0 493 0 353 q 14 649 0 564 q 72 818 28 734 q 184 952 115 901 q 348 1003 253 1003 q 495 958 433 1003 q 597 838 557 913 q 667 521 667 705 q 664 441 667 500 q 635 291 661 381 q 562 132 609 201 q 446 26 514 62 q 524 9 490 9 q 553 13 540 9 q 565 15 559 15 q 592 0 581 15 q 607 -44 607 -18 l 607 -60 q 582 -92 607 -75 q 522 -109 553 -109 m 331 117 q 414 171 380 117 q 468 310 449 225 q 490 526 490 410 q 477 677 490 600 q 432 808 465 753 q 349 862 399 862 q 263 808 298 862 q 211 669 229 753 q 192 467 192 576 q 206 305 192 385 q 252 171 220 225 q 331 117 283 117 z "},"R":{"ha":587,"x_min":0,"x_max":532,"o":"m 451 -8 q 423 -6 446 -8 q 376 26 399 -5 q 328 161 355 65 q 291 281 311 222 q 204 409 248 409 l 195 408 q 191 229 192 337 q 184 61 189 117 q 134 4 176 18 q 100 -1 117 -1 q 6 78 14 -1 q 0 577 0 235 q 6 933 0 841 q 236 1009 17 1009 q 488 875 420 1009 q 523 720 523 806 q 459 502 523 591 q 382 439 426 455 q 431 352 406 416 q 479 212 455 288 q 528 68 505 131 q 532 48 532 58 q 512 9 532 23 q 451 -8 486 -8 m 205 489 q 277 519 246 489 q 325 597 307 549 q 345 714 345 652 q 332 801 345 758 q 288 874 319 844 q 205 905 256 905 l 205 489 z "},"S":{"ha":593,"x_min":0,"x_max":539,"o":"m 283 -3 q 78 75 157 -3 q 2 197 17 135 q 0 222 0 208 q 21 285 0 257 q 71 329 48 322 q 103 336 94 336 q 136 314 125 336 q 170 239 141 296 q 283 142 220 142 q 337 161 317 142 q 359 201 356 181 q 362 231 362 220 q 354 271 361 251 q 291 365 334 325 q 196 441 248 405 q 105 513 148 475 q 33 600 62 551 q 3 727 3 654 q 35 853 3 789 q 127 961 66 917 q 272 1004 188 1004 q 484 920 414 1004 q 539 764 538 853 q 504 680 534 696 q 449 664 473 664 q 419 669 435 664 q 380 710 382 681 l 381 732 q 346 854 378 810 q 282 882 324 882 q 211 836 234 882 q 188 749 188 790 q 253 608 189 671 q 346 531 295 568 q 434 459 392 497 q 505 370 476 420 q 536 238 536 314 q 507 121 536 176 q 421 32 479 66 q 283 -3 364 -3 z "},"T":{"ha":631,"x_min":0,"x_max":577,"o":"m 290 -1 q 250 7 269 -1 q 205 68 211 21 q 195 562 195 231 l 195 832 q 135 828 173 831 q 47 823 91 824 q 0 909 0 825 q 3 945 0 927 q 40 993 12 987 q 307 1002 153 1002 q 532 993 460 1002 q 577 913 577 983 q 572 878 577 896 q 532 838 562 842 q 481 836 511 836 q 423 837 452 836 l 386 838 l 372 838 q 376 376 376 602 q 371 62 376 146 q 290 -1 363 -1 z "},"U":{"ha":656,"x_min":0,"x_max":602,"o":"m 309 -3 q 149 47 210 -3 q 12 385 37 140 q 0 671 0 494 l 6 916 q 62 993 12 973 q 115 1004 89 1004 q 176 990 139 1004 q 216 922 213 977 q 214 583 214 651 q 222 302 214 397 q 307 110 237 110 q 387 320 363 110 q 406 681 404 472 q 406 866 406 802 l 406 923 q 456 989 410 971 q 513 1001 485 1001 q 563 992 531 1001 q 599 941 595 984 q 602 713 602 821 q 597 484 602 623 q 565 244 593 366 q 477 60 538 123 q 309 -3 416 -3 z "},"V":{"ha":670,"x_min":0,"x_max":616,"o":"m 306 -3 q 188 68 222 -3 q 126 270 168 115 q 46 608 84 426 q 0 916 7 790 q 43 991 1 970 q 102 1005 72 1005 q 150 997 118 1005 q 193 948 181 989 q 250 656 222 800 q 290 446 271 538 q 338 271 326 271 q 374 410 343 271 q 503 954 455 779 q 553 989 515 989 q 595 975 575 989 q 616 935 616 961 q 557 639 616 905 q 410 62 459 199 q 306 -3 382 -3 z "},"W":{"ha":1008,"x_min":0,"x_max":954,"o":"m 263 -3 q 210 7 242 -3 q 161 60 177 18 q 105 281 138 126 q 43 612 73 437 q 0 913 13 787 l 0 919 q 36 986 0 964 q 97 1004 65 1004 q 135 999 107 1004 q 178 952 162 994 q 231 680 194 901 q 270 457 251 556 q 300 357 289 357 q 324 413 309 357 q 357 540 339 468 q 397 689 378 628 q 453 753 413 736 q 500 764 476 764 q 547 754 517 764 q 597 701 576 745 q 670 462 624 635 q 697 364 686 403 q 713 326 708 326 q 795 675 728 339 q 854 951 830 853 q 903 991 866 991 q 936 980 921 991 q 954 943 954 968 q 886 503 954 939 q 807 81 832 151 q 690 -1 774 -1 q 572 70 607 -1 q 532 224 552 124 q 502 348 517 294 q 471 405 487 402 q 390 170 438 395 q 363 58 374 97 q 305 4 347 18 q 263 -3 284 -3 z "},"X":{"ha":720,"x_min":0,"x_max":665,"o":"m 539 -8 q 515 -7 537 -8 q 467 24 494 -7 q 293 330 426 79 q 79 14 149 112 q 50 -3 66 -3 q 33 -1 46 -3 q 7 20 20 1 q 0 44 0 31 q 5 67 0 55 q 229 452 56 177 q 16 883 64 771 q 9 920 9 903 q 42 981 9 954 q 129 1009 74 1009 q 212 966 184 1009 q 360 657 235 924 q 572 962 509 886 q 606 977 587 977 q 659 944 640 977 q 665 922 665 934 q 656 890 665 907 q 421 526 587 780 q 619 79 596 144 q 623 56 623 67 q 603 14 623 30 q 539 -8 577 -8 z "},"Y":{"ha":619,"x_min":0,"x_max":565,"o":"m 259 -5 q 58 75 133 -5 q 43 113 43 95 q 47 133 43 123 q 80 153 58 153 q 98 150 89 153 q 184 132 146 132 q 286 174 235 132 q 350 367 336 215 q 325 328 342 350 q 278 288 307 305 q 208 271 250 271 q 104 303 148 271 q 0 693 0 378 q 10 934 0 798 q 61 988 17 977 q 96 994 79 994 q 157 979 122 994 q 197 903 197 962 q 194 814 197 871 q 191 644 191 701 q 194 532 191 591 q 209 431 197 474 q 245 387 220 387 q 323 517 296 387 q 355 789 338 595 q 370 948 361 876 q 421 1002 378 991 q 450 1006 436 1006 q 514 988 479 1006 q 556 915 550 970 q 565 632 565 758 q 549 348 565 492 q 481 118 533 203 q 352 9 429 33 q 259 -5 305 -5 z "},"Z":{"ha":621,"x_min":-6,"x_max":567,"o":"m 155 -12 q 81 -10 103 -12 q -6 109 -1 5 l -6 116 q 11 191 -6 153 q 138 448 72 317 q 271 719 218 608 q 322 854 322 827 l 321 859 q 281 867 315 867 q 171 860 242 867 q 73 855 111 855 q 29 885 41 858 q 16 938 16 915 q 60 1003 16 994 q 295 1014 141 1014 q 478 1008 435 1014 q 567 890 562 990 l 567 884 q 554 823 567 853 q 398 527 486 689 q 218 158 218 199 q 219 153 218 155 q 245 146 226 146 q 425 155 314 146 q 496 160 473 159 q 550 129 535 158 q 565 71 565 99 q 514 3 565 14 q 381 -5 473 -1 q 155 -12 239 -12 z "},"[":{"ha":343,"x_min":0,"x_max":0,"o":""},"\\":{"ha":497,"x_min":0,"x_max":0,"o":""},"]":{"ha":342,"x_min":0,"x_max":0,"o":""},"^":{"ha":434,"x_min":0,"x_max":0,"o":""},"_":{"ha":429,"x_min":0,"x_max":0,"o":""},"`":{"ha":253,"x_min":0,"x_max":0,"o":""},"a":{"ha":645,"x_min":0,"x_max":591,"o":"m 474 -22 q 396 13 428 -22 q 378 95 380 36 q 358 58 366 69 q 227 -3 317 -3 l 223 -3 q 92 54 142 2 q 20 178 41 105 q 0 321 0 250 q 37 517 0 424 q 123 645 68 595 q 258 695 179 695 q 329 680 300 695 q 374 642 357 664 q 397 601 391 621 q 404 656 397 627 q 496 703 421 703 q 545 694 521 703 q 590 637 586 680 q 591 555 591 602 q 587 225 591 389 q 581 60 584 115 q 545 -1 577 20 q 474 -22 512 -22 m 262 81 q 323 119 296 81 q 370 215 351 157 q 396 325 389 274 q 402 409 402 375 q 370 560 402 507 q 302 597 346 597 q 230 545 258 597 q 191 424 202 492 q 180 295 180 355 q 204 134 180 197 q 262 81 224 81 z "},"b":{"ha":635,"x_min":0,"x_max":581,"o":"m 104 -15 q 41 -1 77 -15 q 1 60 5 14 l 0 110 q 4 323 0 178 q 17 655 7 469 q 41 956 27 842 q 118 1004 50 1004 q 182 988 147 1004 q 219 928 216 973 q 197 631 218 850 l 195 606 q 248 672 210 643 q 341 701 286 701 q 465 662 415 701 q 543 561 515 624 q 581 364 581 474 q 572 258 581 318 q 535 135 564 197 q 463 33 507 72 q 362 -5 419 -5 q 274 20 310 -5 q 219 75 239 45 q 195 119 199 104 q 194 90 194 106 q 191 37 193 61 q 138 -11 182 0 q 104 -15 121 -15 m 296 135 q 358 186 334 138 q 395 395 395 264 q 392 471 395 422 q 368 569 388 520 q 312 618 347 618 q 249 570 273 618 q 208 357 208 488 q 212 282 208 331 q 237 185 216 233 q 296 135 258 137 z "},"c":{"ha":513,"x_min":0,"x_max":458,"o":"m 233 -9 q 111 30 161 -9 q 35 132 62 68 q 4 243 7 195 q 0 313 0 292 q 58 562 0 452 q 143 664 92 625 q 263 703 195 703 q 375 670 333 703 q 430 600 416 638 q 443 529 443 561 q 404 418 443 463 q 349 395 379 395 q 299 408 315 395 q 283 435 283 421 q 286 449 283 441 q 303 528 303 481 q 260 599 303 599 q 209 551 230 599 q 180 447 187 503 q 173 349 173 391 q 204 179 173 243 q 269 131 227 131 q 317 147 296 131 q 352 184 338 163 q 374 226 366 206 q 396 247 385 246 q 411 248 408 248 q 443 236 428 248 q 458 201 458 224 q 445 143 458 179 q 338 15 413 58 q 233 -9 295 -9 z "},"d":{"ha":658,"x_min":0,"x_max":604,"o":"m 487 -7 q 426 4 463 -7 q 380 52 389 15 q 378 81 378 67 q 379 101 378 92 l 379 107 q 324 34 362 66 q 222 -2 286 1 q 75 69 128 0 q 0 328 0 165 q 17 471 0 389 q 90 624 34 553 q 234 699 146 694 q 298 690 272 699 q 342 669 325 682 q 368 644 359 656 q 381 622 378 631 l 385 613 q 386 711 385 644 q 391 849 388 778 q 400 960 395 920 q 490 1013 411 1013 q 555 1001 518 1013 q 598 949 591 988 q 604 511 604 888 q 597 67 604 135 q 487 -7 584 -7 m 273 134 q 336 168 311 134 q 372 253 361 201 q 384 359 384 304 l 384 393 q 372 477 384 425 q 339 563 361 529 q 287 597 317 597 q 221 550 245 597 q 184 363 184 478 q 190 279 184 330 q 216 181 195 229 q 273 134 238 134 z "},"e":{"ha":496,"x_min":0,"x_max":441,"o":"m 234 -3 q 113 35 162 -3 q 36 136 63 73 q 0 323 0 218 q 11 436 0 374 q 55 561 22 498 q 139 662 88 624 q 260 701 191 701 q 359 665 319 701 q 420 575 399 630 q 441 450 441 516 q 425 340 441 393 q 370 252 408 287 q 275 216 332 216 q 218 228 239 216 q 187 252 197 239 q 174 274 177 265 q 231 132 179 160 q 262 123 246 123 q 353 174 303 123 q 387 193 371 193 q 404 189 391 193 q 425 164 416 186 q 430 142 430 153 q 389 63 430 106 q 234 -3 326 -3 m 221 355 q 280 410 256 355 q 305 527 305 465 q 300 573 305 548 q 273 598 294 598 q 234 572 251 598 q 204 508 216 546 q 185 434 191 471 q 179 378 179 401 l 179 374 q 221 355 202 355 z "},"f":{"ha":433,"x_min":-35,"x_max":392,"o":"m 159 -9 q 95 8 131 -9 q 55 74 60 25 q 45 263 51 168 q 33 576 35 428 q -1 579 13 577 q -30 612 -20 585 q -35 646 -35 629 q -31 675 -35 656 q -3 699 -27 694 l 36 701 q 86 922 43 839 q 224 1010 128 1006 q 351 956 311 1007 q 392 845 392 901 q 378 795 392 815 q 338 772 360 772 q 314 785 323 772 q 301 811 309 794 q 252 877 272 877 q 246 876 249 877 q 223 711 223 856 q 282 713 257 713 q 323 711 307 713 q 374 655 374 705 q 328 593 374 606 q 224 580 290 585 q 235 298 229 437 q 243 87 243 154 l 243 62 q 159 -9 234 -9 z "},"g":{"ha":681,"x_min":0,"x_max":627,"o":"m 300 -325 q 197 -308 241 -325 q 121 -267 152 -292 q 73 -216 90 -241 q 47 -144 47 -176 q 47 -124 47 -142 q 68 -96 48 -106 q 79 -94 73 -94 q 115 -113 96 -94 q 242 -177 177 -177 q 292 -171 251 -177 q 382 -96 334 -165 q 422 47 422 -38 q 421 79 422 63 q 392 38 411 57 q 342 7 374 19 q 260 -5 311 -5 q 115 46 173 -5 q 28 177 57 98 q 0 343 0 256 l 0 391 q 30 516 0 437 q 120 647 60 596 q 268 699 179 699 q 349 680 317 699 q 398 637 380 661 q 420 593 416 612 l 420 609 q 420 661 420 650 q 475 717 429 705 q 513 722 494 722 q 577 707 541 722 q 619 643 613 692 q 627 382 627 500 q 615 122 627 264 q 561 -127 604 -19 q 452 -280 518 -236 q 300 -325 386 -325 m 306 127 q 390 172 359 127 q 436 349 436 239 q 429 428 436 380 q 395 520 422 476 q 323 565 367 565 q 249 533 278 565 q 207 453 220 501 q 194 352 194 404 q 207 241 194 290 q 245 159 220 191 q 306 127 270 127 z "},"h":{"ha":636,"x_min":0,"x_max":582,"o":"m 109 -9 q 52 4 85 -9 q 12 76 18 18 q 5 362 7 180 q 0 767 0 631 q 3 949 0 893 q 89 1008 11 1008 q 153 994 117 1008 q 191 937 189 979 l 191 646 q 220 675 198 656 q 278 711 242 694 q 360 728 313 728 q 500 676 452 728 q 566 534 548 625 q 582 340 582 450 q 572 65 582 216 q 520 1 566 16 q 477 -7 498 -7 q 376 74 385 -7 q 373 222 373 149 l 374 296 l 375 385 q 373 484 375 427 q 356 587 371 541 q 303 633 341 633 q 212 500 232 633 q 199 242 199 416 l 199 200 q 199 60 199 130 q 151 -1 194 14 q 109 -9 130 -9 z "},"i":{"ha":258,"x_min":0,"x_max":222,"o":"m 113 -4 q 94 -4 112 -4 q 49 17 77 -3 q 15 75 21 37 q 0 349 0 201 q 9 640 0 546 q 100 705 19 705 q 162 691 127 705 q 203 637 198 677 q 203 584 203 619 q 202 469 203 549 q 196 68 196 111 q 171 14 196 31 q 113 -4 145 -4 m 97 741 q 39 762 56 741 q 16 821 25 774 q 6 911 7 869 q 58 950 10 939 q 116 957 88 957 q 211 932 184 957 q 222 897 222 922 q 215 833 222 873 q 186 768 207 793 q 142 747 173 753 q 97 741 118 741 z "},"j":{"ha":254,"x_min":-77,"x_max":199,"o":"m -33 -301 q -75 -258 -66 -301 q -77 -244 -77 -251 q -66 -212 -77 -227 q -16 -60 -31 -161 q 2 307 2 70 l 1 412 l 1 498 q 3 647 1 581 q 36 696 7 682 q 89 708 60 708 q 118 706 96 708 q 170 683 141 703 q 199 629 199 663 q 184 173 199 355 q 128 -119 169 -9 q 10 -284 87 -229 q -33 -301 -14 -301 m 84 753 q 34 772 49 753 q 15 824 22 782 q 6 903 7 866 q 51 938 9 928 q 101 944 77 944 q 182 923 159 944 q 192 891 192 913 q 185 835 192 870 q 161 777 178 800 q 123 758 149 764 q 84 753 102 753 z "},"k":{"ha":535,"x_min":0,"x_max":481,"o":"m 387 -18 q 354 -16 380 -18 q 306 14 328 -14 q 249 165 282 54 q 194 303 214 279 l 194 269 q 189 57 194 119 q 140 -5 183 13 q 90 -16 115 -16 q 41 -5 72 -16 q 3 56 10 5 q 0 206 0 114 q 22 941 0 457 q 52 992 24 975 q 113 1010 79 1010 l 134 1010 q 180 989 152 1010 q 208 927 208 969 q 198 455 208 892 q 241 524 210 477 q 308 618 272 572 q 370 682 343 664 q 405 691 387 691 q 472 658 446 691 q 481 635 481 647 q 475 617 481 627 q 440 573 463 600 q 343 440 361 474 q 389 290 361 370 q 439 148 416 210 q 470 69 463 85 q 477 39 477 52 q 455 1 477 15 q 387 -18 427 -18 z "},"l":{"ha":258,"x_min":0,"x_max":203,"o":"m 102 -17 q 14 71 18 -17 q 10 173 14 98 q 0 612 0 395 q 11 962 0 782 q 64 1015 17 1001 q 104 1021 84 1021 q 166 1007 130 1021 q 203 940 201 994 q 184 113 184 382 l 184 56 q 140 -9 182 7 q 102 -17 121 -17 z "},"m":{"ha":1089,"x_min":0,"x_max":1035,"o":"m 926 -7 q 869 4 904 -7 q 828 59 834 14 q 825 176 825 104 l 825 209 q 813 449 825 360 q 724 593 792 593 q 662 568 686 593 q 624 500 637 542 q 612 413 612 459 q 604 83 612 245 q 553 12 597 31 q 508 3 530 3 q 455 15 487 3 q 420 81 423 28 l 420 206 q 406 473 420 380 q 309 615 385 615 q 235 575 262 615 q 208 458 208 534 q 209 328 208 407 l 210 144 q 208 58 210 89 q 157 3 202 18 q 114 -3 136 -3 q 56 9 90 -3 q 14 75 21 21 q 1 344 6 173 q 0 427 0 387 q 11 646 0 548 q 98 705 22 705 q 205 656 172 705 q 369 714 263 714 q 476 691 433 714 q 544 639 519 669 q 578 586 568 610 q 626 646 596 616 q 700 694 656 675 q 806 714 744 714 q 940 663 892 714 q 1009 522 988 611 q 1034 317 1031 433 q 1035 231 1035 275 q 1031 68 1035 153 q 978 3 1025 20 q 926 -7 952 -7 z "},"n":{"ha":613,"x_min":0,"x_max":559,"o":"m 470 -9 q 376 75 384 -9 q 374 186 374 131 l 377 376 q 375 476 377 420 q 356 576 373 531 q 297 621 340 621 q 238 594 262 621 q 202 526 214 567 q 190 444 191 485 l 179 46 q 132 -1 175 13 q 90 -7 111 -7 q 36 3 68 -7 q 2 62 3 13 q 0 427 0 288 q 3 638 0 579 q 56 702 9 687 q 99 709 77 709 q 189 639 189 709 q 267 692 218 673 q 355 712 315 712 q 484 663 439 712 q 545 525 528 614 q 559 341 559 446 q 547 47 559 226 q 501 -5 541 7 q 470 -9 486 -9 z "},"o":{"ha":587,"x_min":0,"x_max":533,"o":"m 260 -1 q 112 48 170 -1 q 26 178 54 98 q 0 334 0 252 q 1 388 0 340 q 34 515 2 435 q 127 646 66 595 q 278 697 188 697 q 409 659 355 697 q 492 559 462 621 q 533 370 533 475 q 522 262 533 323 q 476 139 511 201 q 387 39 441 77 q 260 -1 333 1 m 287 139 q 359 182 332 139 q 396 351 396 243 q 388 441 396 389 q 354 540 380 493 q 286 587 328 587 q 221 542 247 587 q 178 351 178 468 q 182 281 178 326 q 212 190 186 236 q 284 139 237 144 l 287 139 z "},"p":{"ha":673,"x_min":0,"x_max":619,"o":"m 128 -302 q 9 -208 24 -302 q 0 109 0 -100 q 1 298 0 145 q 32 630 1 451 q 94 694 45 680 q 136 700 115 700 q 201 685 164 700 q 244 621 239 670 q 276 654 255 636 q 327 685 296 672 q 400 699 358 699 q 518 648 469 699 q 592 520 566 598 q 619 349 619 437 q 594 184 619 262 q 516 54 570 106 q 380 -2 463 3 q 281 31 322 -2 q 223 101 239 64 l 224 36 q 225 -63 225 -14 q 221 -232 225 -151 q 166 -297 214 -283 q 128 -302 147 -302 m 351 116 q 408 170 386 121 q 443 368 443 248 q 438 451 443 400 q 409 551 433 503 q 345 600 386 600 q 279 549 304 600 q 241 353 241 473 q 248 262 241 316 q 280 161 254 208 q 347 116 305 116 l 351 116 z "},"q":{"ha":666,"x_min":0,"x_max":612,"o":"m 498 -319 q 448 -307 478 -319 q 411 -243 418 -295 q 407 -107 407 -199 q 414 88 407 -14 q 351 24 396 53 q 242 -5 305 -5 q 103 50 158 -2 q 23 182 49 102 q 0 334 0 254 q 1 392 0 342 q 34 520 3 441 q 122 650 64 600 q 264 701 180 701 q 405 618 368 701 q 461 686 414 669 q 509 695 486 695 q 609 618 600 695 q 612 490 612 563 q 580 -255 612 203 q 536 -312 574 -296 q 498 -319 517 -319 m 292 106 q 359 155 333 106 q 399 357 399 233 q 394 440 399 388 q 364 541 389 492 q 296 591 339 591 q 231 541 256 591 q 189 337 189 462 q 194 256 189 307 q 224 155 199 205 q 292 106 248 106 z "},"r":{"ha":487,"x_min":0,"x_max":433,"o":"m 109 -3 q 48 13 83 -3 q 4 81 14 28 q 0 257 0 121 q 8 618 0 465 q 59 688 14 667 q 113 700 85 700 q 163 690 131 700 q 201 625 195 680 q 332 689 256 689 q 424 640 393 689 q 433 601 433 621 q 395 527 433 553 q 373 519 385 519 q 345 530 360 519 q 313 541 330 541 q 275 527 298 541 q 227 469 251 513 q 200 369 203 425 q 191 66 195 294 q 144 3 186 16 q 109 -3 127 -3 z "},"s":{"ha":489,"x_min":0,"x_max":435,"o":"m 271 -5 q 64 59 148 -5 q 0 149 1 108 q 24 200 0 183 q 40 206 32 206 q 59 199 50 206 q 188 136 125 150 q 220 132 206 132 q 265 156 255 132 q 269 173 269 165 q 248 208 268 190 q 188 250 228 226 q 78 329 132 280 q 4 463 24 378 q 1 507 1 482 q 17 587 1 545 q 78 665 33 630 q 191 699 124 699 q 375 617 300 699 q 435 502 433 553 q 420 449 435 479 q 370 404 405 420 q 344 397 355 397 q 317 408 328 397 q 191 498 243 498 q 169 487 176 498 q 162 467 162 477 q 258 377 163 435 q 356 309 309 347 q 433 153 433 246 q 424 96 433 131 q 374 28 415 62 q 271 -5 334 -5 z "},"t":{"ha":258,"x_min":-76,"x_max":279,"o":"m 140 -10 q 70 13 109 -10 q 17 81 31 35 q 6 222 10 113 q 1 555 1 372 q 1 722 1 642 l -12 722 q -45 723 -32 722 q -76 772 -76 730 q -72 797 -76 781 q -48 819 -68 812 q 4 831 -20 828 q 8 898 6 873 q 40 942 12 927 q 102 958 67 958 q 163 940 137 957 q 190 886 190 922 l 190 849 q 233 851 226 851 q 278 797 273 849 l 279 786 q 243 739 279 743 q 191 735 231 737 l 198 47 q 140 -10 195 -10 z "},"u":{"ha":637,"x_min":0,"x_max":583,"o":"m 174 -11 q 46 86 83 -5 q 3 306 9 176 q 0 459 0 384 q 1 559 0 510 q 3 652 3 609 q 56 703 7 692 q 90 707 73 707 q 162 690 121 707 q 209 621 203 673 q 210 559 210 591 q 207 440 210 503 q 204 324 204 377 q 207 235 204 289 q 236 174 209 180 q 332 374 281 176 q 385 636 368 516 q 441 690 394 676 q 486 696 464 696 q 545 685 511 696 q 583 625 580 673 q 582 505 582 591 l 583 395 q 576 52 583 184 q 497 -5 569 -5 q 382 73 406 -5 q 375 222 375 109 q 376 268 375 248 q 342 157 366 222 q 277 41 318 92 q 174 -11 236 -9 z "},"v":{"ha":557,"x_min":0,"x_max":503,"o":"m 245 -1 q 57 191 124 -1 q 0 584 0 352 l 1 623 q 47 686 5 667 q 98 698 73 698 q 147 689 116 698 q 186 630 178 680 l 193 555 q 210 386 200 473 q 235 235 220 298 q 273 172 250 172 q 304 201 292 172 q 349 385 326 249 q 377 525 361 454 q 416 657 393 596 q 466 691 432 691 q 491 683 479 691 q 503 654 503 674 q 501 639 503 647 q 459 418 476 530 q 430 260 446 335 q 392 126 414 184 q 334 33 369 67 q 245 -1 299 -1 z "},"w":{"ha":885,"x_min":0,"x_max":831,"o":"m 563 -1 q 432 49 481 -1 q 372 155 383 99 q 345 90 363 124 q 296 32 327 56 q 218 7 266 7 q 86 73 142 7 q 9 279 31 138 q 0 426 0 344 q 13 642 0 522 q 90 698 24 698 q 153 682 122 698 q 194 617 194 660 l 194 616 q 189 460 189 546 q 195 316 189 389 q 215 192 201 243 q 254 140 229 140 q 298 190 283 140 q 334 469 322 266 q 351 644 340 571 q 437 697 364 697 q 507 679 473 697 q 553 597 553 655 l 553 595 q 547 498 552 582 q 544 371 544 444 q 608 141 544 141 q 687 274 663 141 q 704 515 704 372 q 701 645 704 584 q 747 696 701 696 q 816 633 801 696 q 831 481 831 557 q 730 109 831 262 q 563 -1 659 -1 z "},"x":{"ha":600,"x_min":0,"x_max":545,"o":"m 431 -4 q 353 20 386 -4 q 231 191 315 54 l 219 176 q 92 10 121 41 q 58 -4 75 -4 q 12 32 26 -4 q 7 51 7 41 q 16 76 7 64 q 73 153 24 88 l 174 285 q 121 376 148 329 q 0 624 0 591 q 17 667 0 644 q 75 697 35 690 q 90 699 82 699 q 156 674 122 699 q 279 509 205 631 q 307 463 293 486 q 470 684 448 650 q 501 702 484 702 q 517 699 505 702 q 541 674 530 696 q 545 655 545 665 q 536 623 545 640 q 360 371 485 547 q 521 67 441 227 q 526 47 526 56 q 501 12 526 28 q 431 -4 476 -4 z "},"y":{"ha":586,"x_min":0,"x_max":532,"o":"m 250 -307 q 153 -284 200 -307 q 75 -223 106 -262 q 61 -189 61 -204 q 63 -174 61 -185 q 80 -157 64 -163 q 90 -155 85 -155 q 115 -165 102 -155 q 185 -193 151 -193 q 239 -177 204 -193 q 307 -87 273 -162 q 340 103 340 -12 q 280 25 319 56 q 189 -5 242 -5 q 57 75 102 -5 q 0 376 0 173 q 19 644 0 495 q 94 699 30 699 q 146 686 121 699 q 183 627 183 667 l 183 625 q 178 553 181 608 q 174 395 174 483 q 235 124 174 124 q 294 193 270 124 q 340 601 340 323 l 340 630 q 384 692 342 676 q 427 701 405 701 q 478 690 447 701 q 517 634 510 680 q 532 352 532 512 q 515 84 532 227 q 445 -172 499 -59 q 284 -305 391 -286 q 250 -307 267 -307 z "},"z":{"ha":500,"x_min":0,"x_max":446,"o":"m 186 -10 q 30 9 56 -10 q 1 88 1 36 q 12 146 1 115 q 182 473 69 291 q 232 572 232 553 q 222 574 231 574 q 162 566 204 574 q 63 552 98 552 q 8 580 18 552 q 0 616 1 602 q 5 648 0 632 q 42 686 15 678 q 288 706 130 706 q 349 704 330 706 q 425 654 405 692 q 446 587 446 616 q 443 568 446 576 q 274 267 395 456 q 201 138 201 153 q 236 123 203 124 q 293 121 269 121 l 383 123 q 428 101 420 121 q 435 63 435 81 q 430 37 435 50 q 385 1 417 7 q 186 -10 300 -10 z "},"{":{"ha":439,"x_min":0,"x_max":0,"o":""},"|":{"ha":169,"x_min":0,"x_max":0,"o":""},"}":{"ha":439,"x_min":0,"x_max":0,"o":""},"~":{"ha":543,"x_min":0,"x_max":0,"o":""},"¡":{"ha":290,"x_min":0,"x_max":0,"o":""},"¢":{"ha":446,"x_min":0,"x_max":0,"o":""},"£":{"ha":443,"x_min":0,"x_max":0,"o":""},"¤":{"ha":917,"x_min":0,"x_max":0,"o":""},"¥":{"ha":54,"x_min":0,"x_max":0,"o":""},"¦":{"ha":169,"x_min":0,"x_max":0,"o":""},"§":{"ha":54,"x_min":0,"x_max":0,"o":""},"¨":{"ha":441,"x_min":0,"x_max":0,"o":""},"©":{"ha":683,"x_min":0,"x_max":0,"o":""},"ª":{"ha":433,"x_min":0,"x_max":0,"o":""},"«":{"ha":479,"x_min":0,"x_max":0,"o":""},"¬":{"ha":0,"x_min":0,"x_max":0,"o":""},"®":{"ha":682,"x_min":0,"x_max":0,"o":""},"¯":{"ha":336,"x_min":0,"x_max":0,"o":""},"°":{"ha":425,"x_min":0,"x_max":0,"o":""},"±":{"ha":509,"x_min":0,"x_max":0,"o":""},"²":{"ha":387,"x_min":0,"x_max":0,"o":""},"³":{"ha":359,"x_min":0,"x_max":0,"o":""},"´":{"ha":253,"x_min":0,"x_max":0,"o":""},"µ":{"ha":54,"x_min":0,"x_max":0,"o":""},"¶":{"ha":54,"x_min":0,"x_max":0,"o":""},"·":{"ha":232,"x_min":0,"x_max":0,"o":""},"¸":{"ha":269,"x_min":0,"x_max":0,"o":""},"¹":{"ha":224,"x_min":0,"x_max":0,"o":""},"º":{"ha":393,"x_min":0,"x_max":0,"o":""},"»":{"ha":479,"x_min":0,"x_max":0,"o":""},"¼":{"ha":757,"x_min":0,"x_max":0,"o":""},"½":{"ha":874,"x_min":0,"x_max":0,"o":""},"¾":{"ha":846,"x_min":0,"x_max":0,"o":""},"¿":{"ha":631,"x_min":0,"x_max":0,"o":""},"À":{"ha":728,"x_min":0,"x_max":0,"o":""},"Á":{"ha":728,"x_min":0,"x_max":0,"o":""},"Â":{"ha":728,"x_min":0,"x_max":0,"o":""},"Ã":{"ha":728,"x_min":0,"x_max":0,"o":""},"Ä":{"ha":728,"x_min":0,"x_max":0,"o":""},"Å":{"ha":728,"x_min":0,"x_max":0,"o":""},"Æ":{"ha":956,"x_min":0,"x_max":0,"o":""},"Ç":{"ha":631,"x_min":0,"x_max":0,"o":""},"È":{"ha":500,"x_min":0,"x_max":0,"o":""},"É":{"ha":500,"x_min":0,"x_max":0,"o":""},"Ê":{"ha":500,"x_min":0,"x_max":0,"o":""},"Ë":{"ha":500,"x_min":0,"x_max":0,"o":""},"Ì":{"ha":406,"x_min":0,"x_max":0,"o":""},"Í":{"ha":406,"x_min":0,"x_max":0,"o":""},"Î":{"ha":406,"x_min":0,"x_max":0,"o":""},"Ï":{"ha":406,"x_min":0,"x_max":0,"o":""},"Ð":{"ha":598,"x_min":0,"x_max":0,"o":""},"Ñ":{"ha":660,"x_min":0,"x_max":0,"o":""},"Ò":{"ha":731,"x_min":0,"x_max":0,"o":""},"Ó":{"ha":731,"x_min":0,"x_max":0,"o":""},"Ô":{"ha":731,"x_min":0,"x_max":0,"o":""},"Õ":{"ha":731,"x_min":0,"x_max":0,"o":""},"Ö":{"ha":731,"x_min":0,"x_max":0,"o":""},"×":{"ha":410,"x_min":0,"x_max":0,"o":""},"Ø":{"ha":728,"x_min":0,"x_max":0,"o":""},"Ù":{"ha":656,"x_min":0,"x_max":0,"o":""},"Ú":{"ha":656,"x_min":0,"x_max":0,"o":""},"Û":{"ha":656,"x_min":0,"x_max":0,"o":""},"Ü":{"ha":656,"x_min":0,"x_max":0,"o":""},"Ý":{"ha":619,"x_min":0,"x_max":0,"o":""},"Þ":{"ha":649,"x_min":0,"x_max":0,"o":""},"ß":{"ha":622,"x_min":0,"x_max":0,"o":""},"à":{"ha":645,"x_min":0,"x_max":0,"o":""},"á":{"ha":645,"x_min":0,"x_max":0,"o":""},"â":{"ha":645,"x_min":0,"x_max":0,"o":""},"ã":{"ha":645,"x_min":0,"x_max":0,"o":""},"ä":{"ha":645,"x_min":0,"x_max":0,"o":""},"å":{"ha":645,"x_min":0,"x_max":0,"o":""},"æ":{"ha":913,"x_min":0,"x_max":0,"o":""},"ç":{"ha":513,"x_min":0,"x_max":0,"o":""},"è":{"ha":496,"x_min":0,"x_max":0,"o":""},"é":{"ha":496,"x_min":0,"x_max":0,"o":""},"ê":{"ha":496,"x_min":0,"x_max":0,"o":""},"ë":{"ha":496,"x_min":0,"x_max":0,"o":""},"ì":{"ha":258,"x_min":0,"x_max":0,"o":""},"í":{"ha":258,"x_min":0,"x_max":0,"o":""},"î":{"ha":258,"x_min":0,"x_max":0,"o":""},"ï":{"ha":258,"x_min":0,"x_max":0,"o":""},"ð":{"ha":600,"x_min":0,"x_max":0,"o":""},"ñ":{"ha":613,"x_min":0,"x_max":0,"o":""},"ò":{"ha":587,"x_min":0,"x_max":0,"o":""},"ó":{"ha":587,"x_min":0,"x_max":0,"o":""},"ô":{"ha":587,"x_min":0,"x_max":0,"o":""},"õ":{"ha":587,"x_min":0,"x_max":0,"o":""},"ö":{"ha":587,"x_min":0,"x_max":0,"o":""},"÷":{"ha":467,"x_min":0,"x_max":0,"o":""},"ø":{"ha":586,"x_min":0,"x_max":0,"o":""},"ù":{"ha":637,"x_min":0,"x_max":0,"o":""},"ú":{"ha":637,"x_min":0,"x_max":0,"o":""},"û":{"ha":637,"x_min":0,"x_max":0,"o":""},"ü":{"ha":637,"x_min":0,"x_max":0,"o":""},"ý":{"ha":586,"x_min":0,"x_max":0,"o":""},"þ":{"ha":614,"x_min":0,"x_max":0,"o":""},"ÿ":{"ha":586,"x_min":0,"x_max":0,"o":""},"ı":{"ha":258,"x_min":0,"x_max":0,"o":""},"ˆ":{"ha":381,"x_min":0,"x_max":0,"o":""},"ˇ":{"ha":382,"x_min":0,"x_max":0,"o":""},"ˉ":{"ha":336,"x_min":0,"x_max":0,"o":""},"˘":{"ha":359,"x_min":0,"x_max":0,"o":""},"˙":{"ha":232,"x_min":0,"x_max":0,"o":""},"˚":{"ha":307,"x_min":0,"x_max":0,"o":""},"˛":{"ha":281,"x_min":0,"x_max":0,"o":""},"˜":{"ha":387,"x_min":0,"x_max":0,"o":""},"˝":{"ha":427,"x_min":0,"x_max":0,"o":""},"–":{"ha":542,"x_min":0,"x_max":0,"o":""},"—":{"ha":803,"x_min":0,"x_max":0,"o":""},"‘":{"ha":227,"x_min":0,"x_max":0,"o":""},"’":{"ha":227,"x_min":0,"x_max":0,"o":""},"‚":{"ha":226,"x_min":0,"x_max":0,"o":""},"“":{"ha":431,"x_min":0,"x_max":0,"o":""},"”":{"ha":431,"x_min":0,"x_max":0,"o":""},"„":{"ha":431,"x_min":0,"x_max":0,"o":""},"†":{"ha":486,"x_min":0,"x_max":0,"o":""},"‡":{"ha":486,"x_min":0,"x_max":0,"o":""},"•":{"ha":376,"x_min":0,"x_max":0,"o":""},"…":{"ha":787,"x_min":0,"x_max":0,"o":""},"‹":{"ha":277,"x_min":0,"x_max":0,"o":""},"›":{"ha":277,"x_min":0,"x_max":0,"o":""},"⁄":{"ha":659,"x_min":0,"x_max":0,"o":""},"₣":{"ha":511,"x_min":0,"x_max":0,"o":""},"₤":{"ha":444,"x_min":0,"x_max":0,"o":""},"₧":{"ha":1335,"x_min":0,"x_max":0,"o":""},"€":{"ha":607,"x_min":0,"x_max":0,"o":""},"№":{"ha":1212,"x_min":0,"x_max":0,"o":""},"™":{"ha":543,"x_min":0,"x_max":0,"o":""},"∂":{"ha":54,"x_min":0,"x_max":0,"o":""},"∆":{"ha":54,"x_min":0,"x_max":0,"o":""},"∏":{"ha":54,"x_min":0,"x_max":0,"o":""},"∑":{"ha":54,"x_min":0,"x_max":0,"o":""},"−":{"ha":385,"x_min":0,"x_max":0,"o":""},"√":{"ha":54,"x_min":0,"x_max":0,"o":""},"∞":{"ha":54,"x_min":0,"x_max":0,"o":""},"∫":{"ha":54,"x_min":0,"x_max":0,"o":""},"≈":{"ha":543,"x_min":0,"x_max":0,"o":""},"≤":{"ha":515,"x_min":0,"x_max":0,"o":""},"≥":{"ha":515,"x_min":0,"x_max":0,"o":""},"":{"ha":54,"x_min":0,"x_max":0,"o":""},"":{"ha":54,"x_min":0,"x_max":0,"o":""},"π":{"ha":54,"x_min":0,"x_max":0,"o":""},"Ω":{"ha":54,"x_min":0,"x_max":0,"o":""},"‰":{"ha":1380,"x_min":0,"x_max":0,"o":""},"≠":{"ha":479,"x_min":0,"x_max":0,"o":""},"◊":{"ha":54,"x_min":0,"x_max":0,"o":""},"Ā":{"ha":728,"x_min":0,"x_max":0,"o":""},"ā":{"ha":645,"x_min":0,"x_max":0,"o":""},"Ă":{"ha":728,"x_min":0,"x_max":0,"o":""},"ă":{"ha":645,"x_min":0,"x_max":0,"o":""},"Ą":{"ha":728,"x_min":0,"x_max":0,"o":""},"ą":{"ha":645,"x_min":0,"x_max":0,"o":""},"Ć":{"ha":631,"x_min":0,"x_max":0,"o":""},"ć":{"ha":513,"x_min":0,"x_max":0,"o":""},"Č":{"ha":631,"x_min":0,"x_max":0,"o":""},"č":{"ha":513,"x_min":0,"x_max":0,"o":""},"Ď":{"ha":598,"x_min":0,"x_max":0,"o":""},"ď":{"ha":658,"x_min":0,"x_max":0,"o":""},"Đ":{"ha":598,"x_min":0,"x_max":0,"o":""},"đ":{"ha":658,"x_min":0,"x_max":0,"o":""},"Ē":{"ha":500,"x_min":0,"x_max":0,"o":""},"ē":{"ha":496,"x_min":0,"x_max":0,"o":""},"Ė":{"ha":500,"x_min":0,"x_max":0,"o":""},"ė":{"ha":496,"x_min":0,"x_max":0,"o":""},"Ę":{"ha":500,"x_min":0,"x_max":0,"o":""},"ę":{"ha":496,"x_min":0,"x_max":0,"o":""},"Ě":{"ha":500,"x_min":0,"x_max":0,"o":""},"ě":{"ha":496,"x_min":0,"x_max":0,"o":""},"Ğ":{"ha":692,"x_min":0,"x_max":0,"o":""},"ğ":{"ha":681,"x_min":0,"x_max":0,"o":""},"Ī":{"ha":406,"x_min":0,"x_max":0,"o":""},"ī":{"ha":258,"x_min":0,"x_max":0,"o":""},"İ":{"ha":406,"x_min":0,"x_max":0,"o":""},"Ł":{"ha":535,"x_min":0,"x_max":0,"o":""},"ł":{"ha":258,"x_min":0,"x_max":0,"o":""},"Ń":{"ha":660,"x_min":0,"x_max":0,"o":""},"ń":{"ha":613,"x_min":0,"x_max":0,"o":""},"Ň":{"ha":660,"x_min":0,"x_max":0,"o":""},"ň":{"ha":613,"x_min":0,"x_max":0,"o":""},"Ō":{"ha":731,"x_min":0,"x_max":0,"o":""},"ō":{"ha":587,"x_min":0,"x_max":0,"o":""},"Ő":{"ha":731,"x_min":0,"x_max":0,"o":""},"ő":{"ha":587,"x_min":0,"x_max":0,"o":""},"Œ":{"ha":990,"x_min":0,"x_max":0,"o":""},"œ":{"ha":895,"x_min":0,"x_max":0,"o":""},"Ŕ":{"ha":587,"x_min":0,"x_max":0,"o":""},"ŕ":{"ha":487,"x_min":0,"x_max":0,"o":""},"Ř":{"ha":587,"x_min":0,"x_max":0,"o":""},"ř":{"ha":487,"x_min":0,"x_max":0,"o":""},"Ś":{"ha":593,"x_min":0,"x_max":0,"o":""},"ś":{"ha":489,"x_min":0,"x_max":0,"o":""},"Ş":{"ha":593,"x_min":0,"x_max":0,"o":""},"ş":{"ha":489,"x_min":0,"x_max":0,"o":""},"Š":{"ha":593,"x_min":0,"x_max":0,"o":""},"š":{"ha":489,"x_min":0,"x_max":0,"o":""},"Ū":{"ha":656,"x_min":0,"x_max":0,"o":""},"ū":{"ha":637,"x_min":0,"x_max":0,"o":""},"Ů":{"ha":656,"x_min":0,"x_max":0,"o":""},"ů":{"ha":637,"x_min":0,"x_max":0,"o":""},"Ű":{"ha":656,"x_min":0,"x_max":0,"o":""},"ű":{"ha":637,"x_min":0,"x_max":0,"o":""},"Ų":{"ha":656,"x_min":0,"x_max":0,"o":""},"ų":{"ha":637,"x_min":0,"x_max":0,"o":""},"Ÿ":{"ha":619,"x_min":0,"x_max":0,"o":""},"Ź":{"ha":627,"x_min":0,"x_max":0,"o":""},"ź":{"ha":500,"x_min":0,"x_max":0,"o":""},"Ż":{"ha":627,"x_min":0,"x_max":0,"o":""},"ż":{"ha":500,"x_min":0,"x_max":0,"o":""},"Ž":{"ha":627,"x_min":0,"x_max":0,"o":""},"ž":{"ha":500,"x_min":0,"x_max":0,"o":""},"":{"ha":513,"x_min":0,"x_max":0,"o":""},"":{"ha":792,"x_min":0,"x_max":0,"o":""}}}
